<svg width="64" height="64" viewBox="0 0 64 64" xmlns="http://www.w3.org/2000/svg">
  <!-- Background Circle with Theme Colors -->
  <defs>
    <linearGradient id="bgGradient" x1="0%" y1="0%" x2="100%" y2="100%">
      <stop offset="0%" style="stop-color:#6f4e37;stop-opacity:1" />
      <stop offset="100%" style="stop-color:#8b6f47;stop-opacity:1" />
    </linearGradient>
    <linearGradient id="scissorsGradient" x1="0%" y1="0%" x2="100%" y2="100%">
      <stop offset="0%" style="stop-color:#f4e5d3;stop-opacity:1" />
      <stop offset="100%" style="stop-color:#e9d5c4;stop-opacity:1" />
    </linearGradient>
    <linearGradient id="handleGradient" x1="0%" y1="0%" x2="100%" y2="100%">
      <stop offset="0%" style="stop-color:#cd853f;stop-opacity:1" />
      <stop offset="100%" style="stop-color:#b8722c;stop-opacity:1" />
    </linearGradient>
  </defs>
  
  <!-- Main Background -->
  <circle cx="32" cy="32" r="30" fill="url(#bgGradient)" stroke="#5d4037" stroke-width="2"/>
  
  <!-- Simple Elegant Scissors -->
  <g transform="translate(32, 32)">
    <!-- Left Scissor -->
    <g transform="rotate(-20)">
      <!-- Handle -->
      <circle cx="-8" cy="0" r="4" fill="url(#handleGradient)" stroke="#a0621a" stroke-width="1"/>
      <circle cx="-8" cy="0" r="2" fill="none" stroke="#a0621a" stroke-width="1"/>
      <!-- Blade -->
      <path d="M -4 0 L 8 -2 L 10 0 L 8 2 Z" fill="url(#scissorsGradient)" stroke="#d2bab0" stroke-width="1"/>
    </g>
    
    <!-- Right Scissor -->
    <g transform="rotate(20)">
      <!-- Handle -->
      <circle cx="-8" cy="0" r="4" fill="url(#handleGradient)" stroke="#a0621a" stroke-width="1"/>
      <circle cx="-8" cy="0" r="2" fill="none" stroke="#a0621a" stroke-width="1"/>
      <!-- Blade -->
      <path d="M -4 0 L 8 -2 L 10 0 L 8 2 Z" fill="url(#scissorsGradient)" stroke="#d2bab0" stroke-width="1"/>
    </g>
    
    <!-- Center Pivot -->
    <circle cx="0" cy="0" r="2" fill="#a0621a"/>
    <circle cx="0" cy="0" r="1" fill="#cd853f"/>
  </g>
  
  <!-- Decorative Star -->
  <g transform="translate(32, 12)">
    <path d="M 0 -4 L 1.2 -1.2 L 4 -1.2 L 1.8 0.8 L 2.4 3.6 L 0 2 L -2.4 3.6 L -1.8 0.8 L -4 -1.2 L -1.2 -1.2 Z" 
          fill="#cd853f" stroke="#b8722c" stroke-width="0.5"/>
  </g>
</svg>